<?xml version="1.0" encoding="UTF-8" standalone="no"?>
<svg
   width="400"
   height="400"
   viewBox="0 0 80 64"
   version="1.1"
   id="svg1"
   sodipodi:docname="logo_2025_sq.svg"
   inkscape:version="1.2.2 (b0a8486541, 2022-12-01)"
   xmlns:inkscape="http://www.inkscape.org/namespaces/inkscape"
   xmlns:sodipodi="http://sodipodi.sourceforge.net/DTD/sodipodi-0.dtd"
   xmlns="http://www.w3.org/2000/svg"
   xmlns:svg="http://www.w3.org/2000/svg"
   xmlns:rdf="http://www.w3.org/1999/02/22-rdf-syntax-ns#"
   xmlns:cc="http://creativecommons.org/ns#"
   xmlns:dc="http://purl.org/dc/elements/1.1/">
  <defs
     id="defs1" />
  <sodipodi:namedview
     id="namedview1"
     pagecolor="#ffffff"
     bordercolor="#000000"
     borderopacity="0.25"
     inkscape:showpageshadow="2"
     inkscape:pageopacity="0.0"
     inkscape:pagecheckerboard="0"
     inkscape:deskcolor="#d1d1d1"
     showgrid="false"
     inkscape:zoom="1.6997079"
     inkscape:cx="191.79766"
     inkscape:cy="194.44517"
     inkscape:window-width="1920"
     inkscape:window-height="1011"
     inkscape:window-x="0"
     inkscape:window-y="0"
     inkscape:window-maximized="1"
     inkscape:current-layer="svg1" />
  <title
     id="title1">CN Railway logo</title>
  <path
     fill="none"
     stroke="#da291c"
     stroke-width="6"
     d="M 68.720943,58.289275 68.547877,26.545874 c -0.06622,-2.86548 -0.545307,-3.463127 -3.760209,-3.508453 l -49.040067,-0.03634 c -6.1329505,0.02967 -6.0769482,-0.438852 -6.2445041,5.797532 -0.0065,5.517019 -0.087801,12.614192 -0.1001826,17.206349 -0.018875,7.000344 0.4426932,9.103685 6.4253347,9.175053 4.246342,0.05085 8.448223,0.107515 12.65265,0.137137 1.322383,0.0093 6.364859,-15.052912 9.277443,-21.926109 1.468784,-2.910343 1.78595,-4.858451 3.12752,-1.424806 4.412428,11.29327 1.149116,30.57956 6.449864,20.496047 l 9.620305,-20.689745 c 1.95567,-4.074356 3.429986,-1.342544 3.429788,3.243309 l 0.103354,23.26235"
     id="path1"
     sodipodi:nodetypes="ccccsssssscccc" />
  <metadata
     id="metadata1">
    <rdf:RDF>
      <cc:Work
         rdf:about="">
        <dc:title>CN Railway logo</dc:title>
      </cc:Work>
    </rdf:RDF>
  </metadata>
</svg>
